<svg width="640" height="480" viewBox="0 0 640 480" fill="none" xmlns="http://www.w3.org/2000/svg">
  <rect x="1" y="1" width="638" height="478" rx="36" fill="url(#paint0_linear_1_1)" stroke="rgba(255,255,255,0.14)"/>
  <circle cx="520" cy="92" r="62" fill="rgba(157,246,79,0.18)"/>
  <circle cx="124" cy="344" r="78" fill="rgba(240,184,63,0.16)"/>
  <path d="M112 338C160 296 194 286 232 290C275 295 296 250 336 220C375 191 423 175 503 148" stroke="#9DF64F" stroke-width="16" stroke-linecap="round" stroke-linejoin="round"/>
  <path d="M112 338C160 296 194 286 232 290C275 295 296 250 336 220C375 191 423 175 503 148" stroke="rgba(255,255,255,0.28)" stroke-width="4" stroke-linecap="round" stroke-linejoin="round"/>
  <rect x="102" y="112" width="436" height="228" rx="24" fill="rgba(255,255,255,0.04)" stroke="rgba(255,255,255,0.08)"/>
  <path d="M164 272L220 236L274 255L336 195L398 214L468 162" stroke="#F7D067" stroke-width="8" stroke-linecap="round" stroke-linejoin="round"/>
  <circle cx="164" cy="272" r="10" fill="#F7D067"/>
  <circle cx="220" cy="236" r="10" fill="#F7D067"/>
  <circle cx="274" cy="255" r="10" fill="#F7D067"/>
  <circle cx="336" cy="195" r="10" fill="#F7D067"/>
  <circle cx="398" cy="214" r="10" fill="#F7D067"/>
  <circle cx="468" cy="162" r="10" fill="#F7D067"/>
  <g opacity="0.88">
    <rect x="152" y="142" width="54" height="88" rx="16" fill="#ECF8F7"/>
    <rect x="230" y="172" width="54" height="58" rx="16" fill="#D8EFED"/>
    <rect x="308" y="142" width="54" height="88" rx="16" fill="#ECF8F7"/>
    <rect x="386" y="124" width="54" height="106" rx="16" fill="#D8EFED"/>
    <rect x="464" y="96" width="54" height="134" rx="16" fill="#ECF8F7"/>
  </g>
  <defs>
    <linearGradient id="paint0_linear_1_1" x1="64" y1="28" x2="576" y2="456" gradientUnits="userSpaceOnUse">
      <stop stop-color="#0B5C62"/>
      <stop offset="0.52" stop-color="#0F393D"/>
      <stop offset="1" stop-color="#121212"/>
    </linearGradient>
  </defs>
</svg>
